HIERARCHY
ROOT newVegas:Hips
{
	OFFSET 0.000000 96.479958 0.000000
	CHANNELS 6 Xposition Yposition Zposition Xrotation Yrotation Zrotation
	JOINT newVegas:Pelvis
	{
		OFFSET 0.000000 0.000000 0.000000
		CHANNELS 3 Xrotation Yrotation Zrotation
		JOINT newVegas:LeftUpLeg
		{
			OFFSET 18.735201 -5.666702 -4.541200
			CHANNELS 3 Xrotation Yrotation Zrotation
			JOINT newVegas:LeftLeg
			{
				OFFSET -0.021200 -31.938179 0.493100
				CHANNELS 3 Xrotation Yrotation Zrotation
				JOINT newVegas:LeftFoot
				{
					OFFSET 0.021200 -31.938179 -4.336299
					CHANNELS 3 Xrotation Yrotation Zrotation
					JOINT newVegas:LeftToeBase
					{
						OFFSET 0.943001 -26.722000 15.023500
						CHANNELS 3 Xrotation Yrotation Zrotation
						End Site
						{
							OFFSET 0.000000 30.670183 0.000000
						}
					}
				}
				JOINT newVegas:Left_PantLeg
				{
					OFFSET 0.663870 -9.044666 -1.108900
					CHANNELS 3 Xrotation Yrotation Zrotation
					End Site
					{
						OFFSET 1.415995 20.635357 0.000000
					}
				}
			}
		}
		JOINT newVegas:RightUpLeg
		{
			OFFSET -18.735201 -5.666702 -4.541200
			CHANNELS 3 Xrotation Yrotation Zrotation
			JOINT newVegas:RightLeg
			{
				OFFSET 0.018946 -31.938133 0.493100
				CHANNELS 3 Xrotation Yrotation Zrotation
				JOINT newVegas:RightFoot
				{
					OFFSET -0.018946 -31.938126 -4.336299
					CHANNELS 3 Xrotation Yrotation Zrotation
					JOINT newVegas:RightToeBase
					{
						OFFSET -0.943001 -26.722004 15.023500
						CHANNELS 3 Xrotation Yrotation Zrotation
						End Site
						{
							OFFSET 0.000000 30.670187 0.000000
						}
					}
				}
				JOINT newVegas:Right_PantLeg
				{
					OFFSET -0.661674 -9.044716 -1.108900
					CHANNELS 3 Xrotation Yrotation Zrotation
					End Site
					{
						OFFSET -1.415958 20.635269 0.000000
					}
				}
			}
		}
	}
	JOINT newVegas:Spine
	{
		OFFSET 0.000000 10.199997 -0.299500
		CHANNELS 3 Xrotation Yrotation Zrotation
		JOINT newVegas:Spine1
		{
			OFFSET 0.000000 11.900002 -1.516600
			CHANNELS 3 Xrotation Yrotation Zrotation
			JOINT newVegas:Spine2
			{
				OFFSET 0.000000 13.600006 -2.842500
				CHANNELS 3 Xrotation Yrotation Zrotation
				JOINT newVegas:Neck
				{
					OFFSET 0.000000 9.624100 -2.890100
					CHANNELS 3 Xrotation Yrotation Zrotation
					JOINT newVegas:Head
					{
						OFFSET 0.000000 14.068802 -1.351900
						CHANNELS 3 Xrotation Yrotation Zrotation
						JOINT newVegas:Hair_Back
						{
							OFFSET 0.000000 3.231903 -17.524799
							CHANNELS 3 Xrotation Yrotation Zrotation
							End Site
							{
								OFFSET 0.000000 19.849884 0.000000
							}
						}
						JOINT newVegas:Hair_Front
						{
							OFFSET 0.000000 31.260406 4.573800
							CHANNELS 3 Xrotation Yrotation Zrotation
							JOINT newVegas:Hair_Front1
							{
								OFFSET 0.000000 2.284103 11.993300
								CHANNELS 3 Xrotation Yrotation Zrotation
								JOINT newVegas:Hair_Front2
								{
									OFFSET 0.000000 2.284103 11.993300
									CHANNELS 3 Xrotation Yrotation Zrotation
									End Site
									{
										OFFSET 0.000000 12.208862 0.000000
									}
								}
							}
						}
						JOINT newVegas:Jowel
						{
							OFFSET 0.000000 -7.458206 6.864100
							CHANNELS 3 Xrotation Yrotation Zrotation
							End Site
							{
								OFFSET 0.000000 19.849884 0.000000
							}
						}
					}
				}
				JOINT newVegas:LeftShoulder
				{
					OFFSET 15.263000 10.923401 -0.547700
					CHANNELS 3 Xrotation Yrotation Zrotation
					JOINT newVegas:LeftArm
					{
						OFFSET 25.438599 -2.830597 -13.032500
						CHANNELS 3 Xrotation Yrotation Zrotation
						JOINT newVegas:LeftForeArm
						{
							OFFSET 29.960503 0.000000 0.000000
							CHANNELS 3 Xrotation Yrotation Zrotation
							JOINT newVegas:LeftHand
							{
								OFFSET 27.849251 0.000000 0.000000
								CHANNELS 3 Xrotation Yrotation Zrotation
								JOINT newVegas:LeftHandThumb1
								{
									OFFSET 4.487587 -3.305161 6.305391
									CHANNELS 3 Xrotation Yrotation Zrotation
									JOINT newVegas:LeftHandThumb2
									{
										OFFSET 5.480453 -3.164139 3.164143
										CHANNELS 3 Xrotation Yrotation Zrotation
										JOINT newVegas:LeftHandThumb3
										{
											OFFSET 5.159721 -2.978973 2.978967
											CHANNELS 3 Xrotation Yrotation Zrotation
											End Site
											{
												OFFSET 2.494507 5.926697 1.738678
											}
										}
									}
								}
								JOINT newVegas:LeftHandIndex1
								{
									OFFSET 18.578728 -0.527832 5.208049
									CHANNELS 3 Xrotation Yrotation Zrotation
									JOINT newVegas:LeftHandIndex2
									{
										OFFSET 3.192009 0.000000 0.000000
										CHANNELS 3 Xrotation Yrotation Zrotation
										JOINT newVegas:LeftHandIndex3
										{
											OFFSET 3.835129 0.000000 0.000000
											CHANNELS 3 Xrotation Yrotation Zrotation
											End Site
											{
												OFFSET -0.034599 3.816971 0.371180
											}
										}
									}
								}
								JOINT newVegas:LeftHandMiddle1
								{
									OFFSET 18.476105 0.000000 0.000000
									CHANNELS 3 Xrotation Yrotation Zrotation
									JOINT newVegas:LeftHandMiddle2
									{
										OFFSET 3.324875 0.000000 0.000000
										CHANNELS 3 Xrotation Yrotation Zrotation
										JOINT newVegas:LeftHandMiddle3
										{
											OFFSET 4.596550 0.000000 0.000000
											CHANNELS 3 Xrotation Yrotation Zrotation
											End Site
											{
												OFFSET 0.057701 4.578827 0.399218
											}
										}
									}
								}
								JOINT newVegas:LeftHandRing1
								{
									OFFSET 17.732719 0.121887 -4.201567
									CHANNELS 3 Xrotation Yrotation Zrotation
									JOINT newVegas:LeftHandRing2
									{
										OFFSET 2.733170 0.000000 0.000000
										CHANNELS 3 Xrotation Yrotation Zrotation
										JOINT newVegas:LeftHandRing3
										{
											OFFSET 3.178268 0.000000 0.000000
											CHANNELS 3 Xrotation Yrotation Zrotation
											End Site
											{
												OFFSET 0.119102 3.170624 0.185394
											}
										}
									}
								}
								JOINT newVegas:LeftHandPinky1
								{
									OFFSET 15.989624 -0.606689 -7.535461
									CHANNELS 3 Xrotation Yrotation Zrotation
									JOINT newVegas:LeftHandPinky2
									{
										OFFSET 2.538986 0.000000 0.000000
										CHANNELS 3 Xrotation Yrotation Zrotation
										JOINT newVegas:LeftHandPinky3
										{
											OFFSET 2.593102 0.000000 0.000000
											CHANNELS 3 Xrotation Yrotation Zrotation
											End Site
											{
												OFFSET -0.150902 2.584198 0.152708
											}
										}
									}
								}
							}
							JOINT newVegas:Left_Sleeve
							{
								OFFSET 0.267448 -0.649796 0.577675
								CHANNELS 3 Xrotation Yrotation Zrotation
								End Site
								{
									OFFSET 0.000000 15.991241 0.000000
								}
							}
							JOINT newVegas:Left_CapeC
							{
								OFFSET 15.715958 -8.608795 -6.935905
								CHANNELS 3 Xrotation Yrotation Zrotation
								JOINT newVegas:Left_CapeC1
								{
									OFFSET 0.000000 -8.688499 0.000000
									CHANNELS 3 Xrotation Yrotation Zrotation
									End Site
									{
										OFFSET 0.000000 8.688499 0.000000
									}
								}
							}
						}
						JOINT newVegas:Left_CapeB
						{
							OFFSET 26.118385 -8.608795 -7.079235
							CHANNELS 3 Xrotation Yrotation Zrotation
							JOINT newVegas:Left_CapeB1
							{
								OFFSET 0.000000 -8.688499 0.000000
								CHANNELS 3 Xrotation Yrotation Zrotation
								End Site
								{
									OFFSET 0.000000 8.688499 0.000000
								}
							}
						}
						JOINT newVegas:Left_CapeA
						{
							OFFSET 5.115639 -8.608795 -10.395809
							CHANNELS 3 Xrotation Yrotation Zrotation
							JOINT newVegas:Left_CapeA1
							{
								OFFSET 0.000000 -8.688499 0.000000
								CHANNELS 3 Xrotation Yrotation Zrotation
								End Site
								{
									OFFSET 0.000000 8.688499 0.000000
								}
							}
						}
					}
				}
				JOINT newVegas:RightShoulder
				{
					OFFSET -15.263000 10.923401 -0.547700
					CHANNELS 3 Xrotation Yrotation Zrotation
					JOINT newVegas:RightArm
					{
						OFFSET -25.438599 -2.830597 -13.032500
						CHANNELS 3 Xrotation Yrotation Zrotation
						JOINT newVegas:RightForeArm
						{
							OFFSET -29.960503 0.000000 0.000000
							CHANNELS 3 Xrotation Yrotation Zrotation
							JOINT newVegas:RightHand
							{
								OFFSET -27.849251 0.000000 0.000000
								CHANNELS 3 Xrotation Yrotation Zrotation
								JOINT newVegas:RightHandThumb1
								{
									OFFSET -4.487587 -3.305161 6.305391
									CHANNELS 3 Xrotation Yrotation Zrotation
									JOINT newVegas:RightHandThumb2
									{
										OFFSET -5.480453 -3.164139 3.164143
										CHANNELS 3 Xrotation Yrotation Zrotation
										JOINT newVegas:RightHandThumb3
										{
											OFFSET -5.159721 -2.978973 2.978967
											CHANNELS 3 Xrotation Yrotation Zrotation
											End Site
											{
												OFFSET -2.494507 5.926697 1.738678
											}
										}
									}
								}
								JOINT newVegas:RightHandIndex1
								{
									OFFSET -18.578728 -0.527832 5.208049
									CHANNELS 3 Xrotation Yrotation Zrotation
									JOINT newVegas:RightHandIndex2
									{
										OFFSET -3.192009 0.000000 0.000000
										CHANNELS 3 Xrotation Yrotation Zrotation
										JOINT newVegas:RightHandIndex3
										{
											OFFSET -3.835129 0.000000 0.000000
											CHANNELS 3 Xrotation Yrotation Zrotation
											End Site
											{
												OFFSET 0.034599 3.816971 0.371180
											}
										}
									}
								}
								JOINT newVegas:RightHandMiddle1
								{
									OFFSET -18.476105 0.000000 0.000000
									CHANNELS 3 Xrotation Yrotation Zrotation
									JOINT newVegas:RightHandMiddle2
									{
										OFFSET -3.324875 0.000000 0.000000
										CHANNELS 3 Xrotation Yrotation Zrotation
										JOINT newVegas:RightHandMiddle3
										{
											OFFSET -4.596550 0.000000 0.000000
											CHANNELS 3 Xrotation Yrotation Zrotation
											End Site
											{
												OFFSET -0.057701 4.578827 0.399218
											}
										}
									}
								}
								JOINT newVegas:RightHandRing1
								{
									OFFSET -17.732719 0.121887 -4.201567
									CHANNELS 3 Xrotation Yrotation Zrotation
									JOINT newVegas:RightHandRing2
									{
										OFFSET -2.733170 0.000000 0.000000
										CHANNELS 3 Xrotation Yrotation Zrotation
										JOINT newVegas:RightHandRing3
										{
											OFFSET -3.178268 0.000000 0.000000
											CHANNELS 3 Xrotation Yrotation Zrotation
											End Site
											{
												OFFSET -0.119102 3.170624 0.185394
											}
										}
									}
								}
								JOINT newVegas:RightHandPinky1
								{
									OFFSET -15.989624 -0.606689 -7.535461
									CHANNELS 3 Xrotation Yrotation Zrotation
									JOINT newVegas:RightHandPinky2
									{
										OFFSET -2.538986 0.000000 0.000000
										CHANNELS 3 Xrotation Yrotation Zrotation
										JOINT newVegas:RightHandPinky3
										{
											OFFSET -2.593102 0.000000 0.000000
											CHANNELS 3 Xrotation Yrotation Zrotation
											End Site
											{
												OFFSET 0.150902 2.584198 0.152708
											}
										}
									}
								}
							}
							JOINT newVegas:Right_CapeC
							{
								OFFSET -15.715958 -8.608795 -6.935905
								CHANNELS 3 Xrotation Yrotation Zrotation
								JOINT newVegas:Right_CapeC1
								{
									OFFSET 0.000000 -8.688499 0.000000
									CHANNELS 3 Xrotation Yrotation Zrotation
									End Site
									{
										OFFSET 0.000000 8.688499 0.000000
									}
								}
							}
							JOINT newVegas:Right_Sleeve
							{
								OFFSET -0.267448 -0.649994 0.577675
								CHANNELS 3 Xrotation Yrotation Zrotation
								End Site
								{
									OFFSET 0.000000 15.991302 0.000000
								}
							}
						}
						JOINT newVegas:Right_CapeA
						{
							OFFSET -5.115540 -8.608795 -10.395824
							CHANNELS 3 Xrotation Yrotation Zrotation
							JOINT newVegas:Right_CapeA1
							{
								OFFSET 0.000000 -8.688499 0.000000
								CHANNELS 3 Xrotation Yrotation Zrotation
								End Site
								{
									OFFSET 0.000000 8.688499 0.000000
								}
							}
						}
						JOINT newVegas:Right_CapeB
						{
							OFFSET -26.118187 -8.608795 -7.079266
							CHANNELS 3 Xrotation Yrotation Zrotation
							JOINT newVegas:Right_CapeB1
							{
								OFFSET 0.000000 -8.688499 0.000000
								CHANNELS 3 Xrotation Yrotation Zrotation
								End Site
								{
									OFFSET 0.000000 8.688499 0.000000
								}
							}
						}
					}
				}
				JOINT newVegas:Left_Collar
				{
					OFFSET 18.625099 8.655502 8.828100
					CHANNELS 3 Xrotation Yrotation Zrotation
					JOINT newVegas:Left_Collar1
					{
						OFFSET 14.783401 10.540405 -1.259500
						CHANNELS 3 Xrotation Yrotation Zrotation
						End Site
						{
							OFFSET 0.000000 18.199875 0.000000
						}
					}
				}
				JOINT newVegas:Collar_Back
				{
					OFFSET 0.000000 15.630707 -20.132601
					CHANNELS 3 Xrotation Yrotation Zrotation
					End Site
					{
						OFFSET 0.000000 22.523010 0.000000
					}
				}
				JOINT newVegas:Left_Peck
				{
					OFFSET 17.239599 -5.132599 25.482599
					CHANNELS 3 Xrotation Yrotation Zrotation
					End Site
					{
						OFFSET 0.000000 22.523010 0.000000
					}
				}
				JOINT newVegas:Right_Peck
				{
					OFFSET -17.239599 -5.132202 25.482599
					CHANNELS 3 Xrotation Yrotation Zrotation
					End Site
					{
						OFFSET 0.000000 22.523010 0.000000
					}
				}
				JOINT newVegas:Right_Collar
				{
					OFFSET -18.625099 8.655792 8.828100
					CHANNELS 3 Xrotation Yrotation Zrotation
					JOINT newVegas:Right_Collar1
					{
						OFFSET -14.783401 10.539993 -1.259500
						CHANNELS 3 Xrotation Yrotation Zrotation
						End Site
						{
							OFFSET 0.000000 18.199631 0.000000
						}
					}
				}
			}
		}
		JOINT newVegas:Belly
		{
			OFFSET 0.000000 -6.540398 9.014299
			CHANNELS 3 Xrotation Yrotation Zrotation
			End Site
			{
				OFFSET 0.000000 11.566666 0.000000
			}
		}
	}
	JOINT newVegas:ElvisFacialAnim_Joint
	{
		OFFSET 1.000000 -95.330101 -8.825800
		CHANNELS 3 Xrotation Yrotation Zrotation
		End Site
		{
			OFFSET 0.000000 35.315800 0.000000
		}
	}
}
MOTION
Frames: 4
Frame Time: 0.033333
1.161748 186.775650 -7.626877 24.434785 -8.050862 -5.948648 0.000001 -0.000000 0.000000 -4.831421 10.134866 23.095885 50.188759 -6.387921 -1.399872 43.741921 -11.179796 -33.974228 -0.000001 0.000000 0.000002 -0.000001 -0.000000 0.000001 -1.465440 -5.269652 -17.515221 80.578023 -5.450143 -8.833318 43.795853 -2.470361 6.461137 -0.000000 -0.000002 0.000002 -0.000000 0.000001 -0.000000 -1.475557 -2.100224 5.029625 -3.506707 1.721726 2.210507 -3.516392 1.683117 2.224223 1.844764 0.346124 -0.312362 1.844755 0.346124 -0.312378 0.000004 0.000000 0.000000 1.844762 0.346122 -0.312362 1.844760 0.346075 -0.312353 0.000002 0.000000 0.000000 0.000004 0.000000 0.000000 3.067676 -37.730303 16.067176 -51.807958 -50.014566 24.573504 -0.000000 -38.713273 -0.000012 -91.985989 27.326417 1.565390 -5.776457 -8.151343 -12.892843 83.834719 73.930022 -76.654277 0.000002 0.000000 -0.000001 5.890858 8.196522 -89.714255 5.477734 5.839183 -86.335394 -0.000001 -0.000001 0.000000 5.999899 8.211238 -94.566052 5.477436 5.839145 -86.332519 -0.000001 -0.000000 0.000005 6.046255 8.207386 -94.540200 5.477404 5.839137 -86.332362 -0.000003 0.000001 -0.000005 5.860509 8.198906 -89.713018 6.200643 5.840628 -93.431428 0.000003 0.000002 -0.000005 0.000001 -0.000003 -0.000004 0.000001 -0.000003 -0.000004 0.000001 -0.000003 -0.000004 -0.000001 0.000001 -0.000003 -0.000002 0.000001 -0.000003 -0.000001 0.000001 -0.000003 -0.000001 0.000001 -0.000003 23.818792 26.853698 -34.392270 -87.968390 40.799237 10.883442 0.000001 51.409509 -0.000012 -74.494490 -15.037213 16.074116 -7.214403 10.182461 13.568195 89.796442 -74.677921 83.179355 0.000000 0.000000 -0.000002 4.623837 -6.930923 88.952996 4.360391 -4.647715 86.342409 -0.000004 0.000003 0.000002 4.594081 -6.930356 88.951780 4.360201 -4.647709 86.340093 0.000001 0.000002 -0.000004 4.595410 -6.930365 88.951849 4.360198 -4.647690 86.340107 -0.000000 0.000004 -0.000001 4.593358 -6.930396 88.951760 4.360203 -4.647684 86.340121 0.000001 -0.000000 -0.000002 -0.000003 -0.000001 0.000002 -0.000002 -0.000001 0.000003 -0.000002 -0.000001 0.000001 0.000003 -0.000001 -0.000001 0.000004 -0.000001 0.000001 0.000003 -0.000001 -0.000001 0.000004 -0.000001 0.000003 0.000001 0.000000 -0.000000 0.000001 0.000000 -0.000000 0.000001 0.000000 -0.000000 0.000001 0.000000 -0.000000 0.000001 0.000000 -0.000000 0.000001 0.000000 -0.000000 0.000001 0.000000 -0.000000 0.000001 -0.000000 -0.000000 0.000001 -0.000000 0.000000 
0.792907 180.923065 0.989735 22.171472 -7.345103 -5.541551 -0.000001 -0.000000 -0.000000 -0.812848 11.506255 23.093341 48.922138 7.089392 -0.902457 51.107075 -8.025431 -23.167175 -0.000001 -0.000002 0.000000 -0.000001 -0.000000 -0.000000 0.403612 -9.586995 -20.651359 77.250819 -7.046359 -9.519129 45.927766 -5.899133 4.631237 0.000001 0.000002 0.000001 0.000002 0.000000 -0.000000 -1.987894 -2.453528 4.822396 -4.550788 1.561343 2.252418 -4.559091 1.514980 2.265296 1.688865 0.405843 -0.251763 1.688854 0.405845 -0.251771 -0.000000 0.000001 -0.000000 1.688863 0.405822 -0.251759 1.688868 0.405864 -0.251767 0.000001 -0.000000 0.000000 -0.000000 0.000001 -0.000000 3.042115 -36.860718 15.796339 -55.267265 -48.806384 19.528271 0.000009 -42.421905 0.000014 -92.767643 25.745785 5.528109 -5.767394 -8.146203 -12.954044 84.274733 73.959761 -77.056159 -0.000000 0.000002 -0.000006 5.937867 8.196591 -90.025438 5.503297 5.840756 -86.586609 -0.000001 -0.000000 0.000001 6.030127 8.210755 -94.861888 5.502978 5.840706 -86.583576 -0.000000 0.000002 0.000001 6.068782 8.206871 -94.760938 5.502987 5.840726 -86.583419 -0.000001 -0.000004 0.000002 5.889126 8.199123 -89.993671 6.226193 5.839040 -93.682499 0.000001 0.000002 -0.000002 -0.000003 0.000001 -0.000001 -0.000003 0.000001 -0.000001 -0.000003 0.000001 -0.000001 0.000001 0.000001 -0.000001 0.000001 0.000000 -0.000001 0.000001 0.000001 -0.000001 -0.000000 0.000001 -0.000002 22.889743 27.486367 -33.143350 -90.130241 39.560613 16.132984 -0.000005 52.364554 0.000013 -69.091175 -16.490337 17.310968 -7.355099 10.232366 13.440310 89.925075 -73.944127 82.086607 0.000000 -0.000000 -0.000001 4.362715 -6.922180 87.893770 4.311436 -4.644340 85.737917 -0.000001 -0.000003 0.000002 4.385026 -6.922890 87.862105 4.311209 -4.644321 85.735369 -0.000001 -0.000000 0.000001 4.387174 -6.922962 87.862181 4.311234 -4.644305 85.735396 0.000000 0.000001 0.000001 4.328559 -7.107765 87.892759 4.311210 -4.644310 85.735594 -0.000004 -0.000000 0.000002 -0.000001 0.000001 0.000001 -0.000001 -0.000003 0.000000 -0.000001 0.000001 -0.000000 -0.000000 0.000000 -0.000002 -0.000000 0.000000 -0.000000 -0.000000 0.000000 -0.000002 0.000000 -0.000000 0.000001 0.000002 0.000001 -0.000000 0.000002 0.000001 -0.000000 0.000002 0.000001 -0.000000 0.000002 0.000001 -0.000000 0.000002 0.000001 -0.000000 0.000002 0.000001 -0.000000 0.000002 0.000001 -0.000000 0.000002 0.000001 -0.000000 -0.000001 -0.000000 -0.000000 
0.032339 175.553665 8.925213 19.262679 -7.178908 -4.936464 -0.000002 0.000000 -0.000000 0.775494 11.749114 21.688041 48.863334 8.310967 -0.477914 52.428085 -5.358388 -16.957538 0.000001 0.000001 0.000000 -0.000001 0.000002 -0.000000 2.211929 -11.397608 -23.843854 74.122627 -7.794501 -9.496626 52.005600 -5.949917 10.063440 0.000001 0.000000 -0.000001 0.000001 0.000004 -0.000001 -2.214555 -2.324654 4.147784 -4.987338 1.183361 2.097043 -4.993030 1.137936 2.107150 1.578425 0.467770 -0.162217 1.578429 0.467770 -0.162210 0.000000 -0.000000 0.000000 1.578423 0.467795 -0.162221 1.578276 0.467761 -0.162214 0.000001 -0.000000 0.000000 0.000000 -0.000000 -0.000000 3.036410 -36.026622 15.542497 -58.355873 -47.277043 14.528396 0.000004 -45.834121 0.000002 -93.284736 23.293568 8.335303 -5.738528 -8.124121 -13.091403 85.326357 74.012271 -78.016565 0.000003 0.000002 -0.000004 6.041893 8.195505 -90.753932 5.563143 5.843991 -87.174620 -0.000000 -0.000001 -0.000002 6.100935 8.209017 -95.554463 5.562809 5.843965 -87.171293 -0.000000 -0.000003 -0.000004 6.121596 8.205303 -95.277813 5.562788 5.843960 -87.171129 -0.000001 -0.000002 -0.000002 5.968116 8.199009 -90.767750 6.285964 5.834913 -94.270209 -0.000001 -0.000002 -0.000001 0.000003 0.000001 -0.000000 0.000003 0.000001 -0.000000 0.000002 0.000001 0.000000 0.000001 -0.000003 0.000001 0.000001 -0.000003 0.000002 0.000001 -0.000003 0.000001 0.000001 -0.000003 0.000001 21.937147 28.097626 -31.872186 -91.076918 37.837137 20.265803 -0.000009 54.182019 0.000011 -63.621184 -17.772251 17.026958 -7.470330 10.266439 13.330324 89.909059 -73.373498 81.051656 0.000002 -0.000000 -0.000006 4.146117 -6.908774 86.999630 4.266817 -4.640813 85.186748 0.000002 -0.000000 0.000004 4.205877 -6.911604 86.943773 4.266583 -4.640792 85.184016 -0.000002 -0.000002 0.000004 4.208735 -6.911742 86.943896 4.266598 -4.640782 85.184029 0.000003 0.000001 -0.000001 4.101397 -7.250542 86.997526 4.266621 -4.640784 85.184371 0.000004 0.000002 -0.000004 0.000000 -0.000001 -0.000000 -0.000000 -0.000003 -0.000001 0.000000 -0.000001 -0.000001 0.000002 0.000000 0.000000 0.000002 0.000001 0.000000 0.000002 0.000000 0.000000 0.000002 0.000001 0.000002 0.000000 0.000000 -0.000000 0.000000 0.000000 -0.000000 0.000000 0.000000 -0.000000 0.000000 0.000000 -0.000000 0.000000 0.000000 -0.000000 0.000000 0.000000 -0.000000 0.000000 0.000000 -0.000000 -0.000001 0.000000 -0.000000 -0.000002 0.000000 -0.000000 
-1.011216 170.528809 16.504423 16.066080 -7.777572 -4.185450 0.000001 0.000000 0.000001 -0.090048 11.329447 19.271585 52.699240 6.778479 -0.333011 49.591644 -2.988559 -10.834103 -0.000001 0.000000 0.000000 -0.000003 -0.000002 -0.000001 -0.529866 -12.692277 -24.794913 73.923376 -6.566049 -8.475777 55.960365 -5.203659 12.007367 0.000002 -0.000001 0.000002 0.000001 -0.000004 0.000000 -2.173958 -1.613968 2.927644 -4.861483 0.720566 1.757852 -4.864564 0.683454 1.764430 1.477682 0.531982 -0.056198 1.477685 0.531983 -0.056194 0.000001 0.000000 -0.000000 1.477828 0.531988 -0.056200 1.477535 0.531980 -0.056196 -0.000000 -0.000000 -0.000000 0.000001 0.000000 -0.000000 3.048548 -35.227039 15.304921 -60.966829 -45.909383 9.668116 -0.000003 -48.568761 0.000011 -93.104091 20.565262 10.060181 -5.689583 -8.084917 -13.301863 86.981523 74.075007 -79.527977 0.000003 0.000000 -0.000008 6.200694 8.190573 -91.886214 5.656241 5.847818 -88.088629 -0.000001 0.000002 0.000001 6.210907 8.204618 -96.630969 5.655829 5.847786 -88.084756 0.000003 0.000001 0.000002 6.203644 8.201944 -96.081282 5.655844 5.847795 -88.084599 -0.000003 -0.000002 -0.000001 6.087459 8.196809 -91.937563 6.378743 5.827274 -95.183597 0.000001 -0.000005 -0.000001 -0.000000 0.000001 -0.000000 -0.000000 0.000001 -0.000000 -0.000001 0.000001 0.000000 -0.000000 0.000000 0.000001 -0.000000 0.000000 0.000000 -0.000000 0.000000 0.000001 -0.000000 0.000001 0.000001 20.959064 28.675743 -30.587674 -90.940240 35.612787 23.389168 -0.000029 57.013320 0.000019 -58.871026 -19.111460 15.534468 -7.547960 10.287776 13.237369 89.749662 -73.002701 80.144142 0.000001 -0.000003 0.000001 3.991214 -6.895371 86.305799 4.228699 -4.637457 84.715499 -0.000001 -0.000002 -0.000000 4.067161 -6.899762 86.232491 4.228451 -4.637436 84.712651 -0.000001 -0.000001 -0.000001 4.070508 -6.899982 86.232607 4.228491 -4.637435 84.712603 -0.000001 0.000002 0.000003 3.928184 -7.352284 86.301653 4.228480 -4.637415 84.712965 0.000002 0.000003 -0.000003 0.000002 -0.000001 0.000002 -0.000000 0.000000 0.000002 0.000002 -0.000000 0.000001 0.000004 0.000001 -0.000002 0.000003 0.000002 -0.000001 0.000004 0.000001 -0.000002 0.000004 0.000002 0.000001 -0.000000 0.000001 0.000000 -0.000000 0.000001 0.000000 -0.000000 0.000001 0.000000 -0.000000 0.000001 0.000000 -0.000000 0.000001 0.000000 -0.000000 0.000001 0.000000 -0.000000 0.000001 0.000000 -0.000000 -0.000000 -0.000000 0.000001 0.000000 0.000001 
